<svg xmlns="http://www.w3.org/2000/svg" width="242" height="252" viewBox="0 0 242 252">
<g>
<path d="M 207.93 252.00 L 0.00 252.00 L 76.75 251.87 C118.96,251.80 150.87,251.40 147.66,250.99 C144.45,250.58 141.21,249.63 140.47,248.87 C139.73,248.12 136.24,241.88 132.72,235.00 C124.18,218.34 118.76,209.50 117.05,209.50 C116.29,209.50 111.48,215.57 106.38,223.00 C95.41,238.98 91.72,245.29 86.30,247.70 C82.77,249.28 78.50,249.20 71.02,249.06 C69.43,249.03 67.69,249.00 65.79,248.98 C55.18,248.87 45.15,248.64 43.50,248.47 C41.85,248.30 36.34,248.13 31.27,248.08 C22.61,248.01 21.85,247.83 19.14,245.25 C14.96,241.28 8.56,224.33 9.26,219.11 C10.07,213.02 32.74,166.14 42.04,151.30 C42.80,150.08 43.15,148.82 42.82,148.49 C42.49,148.15 39.13,147.45 35.36,146.93 C18.12,144.54 10.21,139.18 7.99,128.38 C7.33,125.14 5.83,120.03 4.67,117.00 C-0.11,104.62 3.28,93.48 14.27,85.44 C28.82,74.79 48.02,65.70 66.00,60.94 C70.68,59.70 75.31,57.94 76.29,57.02 C77.41,55.99 78.85,51.61 80.11,45.43 C82.34,34.47 84.76,28.81 89.68,23.06 C103.31,7.14 129.83,6.48 144.63,21.68 C150.48,27.69 158.50,44.35 160.67,55.00 C161.51,59.12 162.56,62.88 163.00,63.35 C163.44,63.81 168.01,65.89 173.16,67.96 C198.54,78.18 220.43,92.21 225.25,101.36 C226.58,103.87 227.73,108.46 228.17,113.00 C228.58,117.12 229.20,123.49 229.57,127.15 C230.44,136.02 229.03,139.89 222.94,145.37 C217.12,150.60 212.85,151.86 197.67,152.83 L 187.17 153.50 L 189.04 157.34 C190.07,159.45 193.23,167.10 196.06,174.34 C198.90,181.58 201.80,188.85 202.51,190.50 C209.07,205.66 217.00,229.56 217.00,234.16 C217.00,240.24 214.83,245.95 211.35,249.00 L 207.93 252.00 ZM 148.21 228.26 C152.22,228.45 165.53,228.69 177.78,228.80 C196.95,228.97 200.14,228.79 200.65,227.47 C201.38,225.57 192.59,200.11 186.50,186.50 C185.76,184.85 184.27,181.25 183.19,178.50 C182.10,175.75 178.30,167.20 174.74,159.50 C167.08,142.94 166.33,140.20 168.37,136.25 C171.06,131.04 172.19,130.68 189.96,129.39 C203.45,128.41 207.57,127.75 210.91,126.04 C218.12,122.37 220.77,115.15 217.65,107.72 C213.97,98.97 192.89,85.88 165.54,75.35 C148.57,68.82 147.15,67.05 145.96,51.04 C144.99,37.95 143.17,33.24 136.88,27.58 C128.74,20.26 118.76,18.21 108.06,21.67 C97.99,24.92 92.00,33.64 89.36,48.90 C86.83,63.47 84.92,65.36 67.50,70.52 C52.73,74.90 42.93,78.99 32.50,85.12 C15.73,94.97 12.01,98.97 12.00,107.17 C12.00,116.52 19.61,121.05 38.64,123.01 C52.25,124.41 55.28,125.36 58.55,129.24 C62.59,134.04 61.16,138.37 48.93,158.50 C44.67,165.52 19.28,216.93 18.48,220.17 C17.99,222.18 18.27,223.07 19.66,223.78 C20.67,224.30 33.97,225.00 49.21,225.33 L 76.91 225.94 L 80.26 221.72 C83.92,217.11 84.07,216.90 93.48,202.89 C102.86,188.93 104.87,187.00 110.07,187.00 C113.81,187.00 114.85,187.54 118.42,191.32 C120.66,193.70 123.39,197.41 124.48,199.57 C125.57,201.73 128.16,206.32 130.23,209.77 C132.30,213.21 134.00,216.27 134.00,216.57 C134.00,216.86 135.56,219.53 137.46,222.50 L 140.92 227.91 ZM 39.88 243.25 C42.29,243.30 44.55,243.34 46.68,243.38 C76.34,243.96 78.94,244.01 79.47,242.99 C79.56,242.82 79.59,242.62 79.68,242.38 C80.79,239.50 78.69,235.51 75.98,235.37 C74.61,235.29 61.40,234.90 46.61,234.50 L 19.72 233.76 L 20.44 236.63 C21.94,242.62 22.81,242.92 39.88,243.25 ZM 164.33 246.04 C204.04,247.17 205.00,247.15 205.68,245.38 C206.02,244.49 205.90,242.67 205.40,241.32 L 204.50 238.87 L 172.66 238.31 L 140.82 237.76 L 142.54 241.13 C143.48,242.98 144.46,244.73 144.71,245.00 C144.96,245.27 153.79,245.74 164.33,246.04 ZM 179.97 144.96 C182.04,147.86 182.46,148.00 189.32,147.99 C212.36,147.97 223.00,143.86 223.00,135.00 C223.00,130.49 221.70,129.93 217.88,132.79 C216.57,133.77 214.20,135.14 212.62,135.83 C209.49,137.18 193.98,138.93 184.72,138.97 C177.88,139.00 176.75,140.43 179.97,144.96 ZM 87.08 236.68 L 88.15 239.50 L 90.33 236.85 C91.52,235.40 94.53,231.22 97.00,227.56 C99.47,223.90 104.31,217.00 107.75,212.22 C111.19,207.45 114.00,202.89 114.00,202.10 C114.00,200.52 111.16,197.00 109.89,197.00 C109.45,197.00 104.36,204.16 98.59,212.92 C92.81,221.67 87.61,229.12 87.04,229.47 C85.70,230.30 85.72,233.13 87.08,236.68 ZM 33.50 141.49 C45.29,143.67 46.53,143.50 49.05,139.43 C50.52,137.03 50.92,135.52 50.25,134.85 C49.70,134.30 44.11,133.21 37.83,132.44 C27.60,131.18 21.05,129.71 15.70,127.49 C14.13,126.84 13.99,127.12 14.61,129.62 C16.26,136.30 20.79,139.15 33.50,141.49 Z" fill="rgb(31,31,31)"/>
<path d="M 0.00 126.00 L 0.00 0.00 L 121.00 0.00 L 242.00 0.00 L 242.00 126.00 L 242.00 252.00 L 224.97 252.00 L 207.93 252.00 L 211.35 249.00 C214.83,245.95 217.00,240.24 217.00,234.16 C217.00,229.56 209.07,205.66 202.51,190.50 C201.80,188.85 198.90,181.58 196.06,174.34 C193.23,167.10 190.07,159.45 189.04,157.34 L 187.17 153.50 L 197.67 152.83 C212.85,151.86 217.12,150.60 222.94,145.37 C229.03,139.89 230.44,136.02 229.57,127.15 C229.20,123.49 228.58,117.12 228.17,113.00 C227.73,108.46 226.58,103.87 225.25,101.36 C220.43,92.21 198.54,78.18 173.16,67.96 C168.01,65.89 163.44,63.81 163.00,63.35 C162.56,62.88 161.51,59.12 160.67,55.00 C158.50,44.35 150.48,27.69 144.63,21.68 C129.83,6.48 103.31,7.14 89.68,23.06 C84.76,28.81 82.34,34.47 80.11,45.43 C78.85,51.61 77.41,55.99 76.29,57.02 C75.31,57.94 70.68,59.70 66.00,60.94 C48.02,65.70 28.82,74.79 14.27,85.44 C3.28,93.48 -0.11,104.62 4.67,117.00 C5.83,120.03 7.33,125.14 7.99,128.38 C10.21,139.18 18.12,144.54 35.36,146.93 C39.13,147.45 42.49,148.15 42.82,148.49 C43.15,148.82 42.80,150.08 42.04,151.30 C32.74,166.14 10.07,213.02 9.26,219.11 C8.56,224.33 14.96,241.28 19.14,245.25 C21.85,247.83 22.61,248.01 31.27,248.08 C36.34,248.13 41.85,248.30 43.50,248.47 C45.15,248.64 55.18,248.87 65.79,248.98 C90.43,249.23 86.75,251.59 106.38,223.00 C111.48,215.57 116.29,209.50 117.05,209.50 C118.76,209.50 124.18,218.34 132.72,235.00 C136.24,241.88 139.73,248.12 140.47,248.87 C141.21,249.63 144.45,250.58 147.66,250.99 C150.87,251.40 118.96,251.80 76.75,251.87 L 0.00 252.00 L 0.00 126.00 ZM 164.33 246.04 C153.79,245.74 144.96,245.27 144.71,245.00 C144.46,244.73 143.48,242.98 142.54,241.13 L 140.82 237.76 L 172.66 238.31 L 204.50 238.87 L 205.40 241.32 C205.90,242.67 206.02,244.49 205.68,245.38 C205.00,247.15 204.04,247.17 164.33,246.04 ZM 39.88 243.25 C22.81,242.92 21.94,242.62 20.44,236.63 L 19.72 233.76 L 46.61 234.50 C61.40,234.90 74.61,235.29 75.98,235.37 C78.69,235.51 80.79,239.50 79.68,242.38 C79.02,244.12 81.61,244.06 39.88,243.25 ZM 87.08 236.68 C85.72,233.13 85.70,230.30 87.04,229.47 C87.61,229.12 92.81,221.67 98.59,212.92 C104.36,204.16 109.45,197.00 109.89,197.00 C111.16,197.00 114.00,200.52 114.00,202.10 C114.00,202.89 111.19,207.45 107.75,212.22 C104.31,217.00 99.47,223.90 97.00,227.56 C94.53,231.22 91.52,235.40 90.33,236.85 L 88.15 239.50 L 87.08 236.68 ZM 148.21 228.26 L 140.92 227.91 L 137.46 222.50 C135.56,219.53 134.00,216.86 134.00,216.57 C134.00,216.27 132.30,213.21 130.23,209.77 C128.16,206.32 125.57,201.73 124.48,199.57 C123.39,197.41 120.66,193.70 118.42,191.32 C114.85,187.54 113.81,187.00 110.07,187.00 C104.87,187.00 102.86,188.93 93.48,202.89 C84.07,216.90 83.92,217.11 80.26,221.72 L 76.91 225.94 L 49.21 225.33 C33.97,225.00 20.67,224.30 19.66,223.78 C18.27,223.07 17.99,222.18 18.48,220.17 C19.28,216.93 44.67,165.52 48.93,158.50 C61.16,138.37 62.59,134.04 58.55,129.24 C55.28,125.36 52.25,124.41 38.64,123.01 C19.61,121.05 12.00,116.52 12.00,107.17 C12.01,98.97 15.73,94.97 32.50,85.12 C42.93,78.99 52.73,74.90 67.50,70.52 C84.92,65.36 86.83,63.47 89.36,48.90 C92.00,33.64 97.99,24.92 108.06,21.67 C118.76,18.21 128.74,20.26 136.88,27.58 C143.17,33.24 144.99,37.95 145.96,51.04 C147.15,67.05 148.57,68.82 165.54,75.35 C192.89,85.88 213.97,98.97 217.65,107.72 C220.77,115.15 218.12,122.37 210.91,126.04 C207.57,127.75 203.45,128.41 189.96,129.39 C172.19,130.68 171.06,131.04 168.37,136.25 C166.33,140.20 167.08,142.94 174.74,159.50 C178.30,167.20 182.10,175.75 183.19,178.50 C184.27,181.25 185.76,184.85 186.50,186.50 C192.59,200.11 201.38,225.57 200.65,227.47 C200.14,228.79 196.95,228.97 177.78,228.80 C165.53,228.69 152.22,228.45 148.21,228.26 ZM 179.97 144.96 C176.75,140.43 177.88,139.00 184.72,138.97 C193.98,138.93 209.49,137.18 212.62,135.83 C214.20,135.14 216.57,133.77 217.88,132.79 C221.70,129.93 223.00,130.49 223.00,135.00 C223.00,143.86 212.36,147.97 189.32,147.99 C182.46,148.00 182.04,147.86 179.97,144.96 ZM 33.50 141.49 C20.79,139.15 16.26,136.30 14.61,129.62 C13.99,127.12 14.13,126.84 15.70,127.49 C21.05,129.71 27.60,131.18 37.83,132.44 C44.11,133.21 49.70,134.30 50.25,134.85 C50.92,135.52 50.52,137.03 49.05,139.43 C46.53,143.50 45.29,143.67 33.50,141.49 Z" fill="rgb(253,253,253)"/>
</g>
</svg>